<?xml version="1.0" encoding="UTF-8" standalone="no"?><svg xmlns="http://www.w3.org/2000/svg" xmlns:xlink="http://www.w3.org/1999/xlink" contentScriptType="application/ecmascript" contentStyleType="text/css" height="518px" preserveAspectRatio="none" style="width:573px;height:518px;background:#FFFFFF;" version="1.1" viewBox="0 0 573 518" width="573px" zoomAndPan="magnify"><defs><filter height="300%" id="fewjuqzwwoi1a" width="300%" x="-1" y="-1"><feGaussianBlur result="blurOut" stdDeviation="2.0"/><feColorMatrix in="blurOut" result="blurOut2" type="matrix" values="0 0 0 0 0 0 0 0 0 0 0 0 0 0 0 0 0 0 .4 0"/><feOffset dx="4.0" dy="4.0" in="blurOut2" result="blurOut3"/><feBlend in="SourceGraphic" in2="blurOut3" mode="normal"/></filter></defs><g><ellipse cx="408" cy="20" fill="#000000" filter="url(#fewjuqzwwoi1a)" rx="10" ry="10" style="stroke:none;stroke-width:1.0;"/><rect fill="#FEFECE" filter="url(#fewjuqzwwoi1a)" height="33.9688" rx="12.5" ry="12.5" style="stroke:#A80036;stroke-width:1.5;" width="80" x="368" y="50"/><text fill="#000000" font-family="sans-serif" font-size="12" lengthAdjust="spacing" textLength="60" x="378" y="71.1387">服务端启动</text><rect fill="#FEFECE" filter="url(#fewjuqzwwoi1a)" height="33.9688" rx="12.5" ry="12.5" style="stroke:#A80036;stroke-width:1.5;" width="80" x="368" y="103.9688"/><text fill="#000000" font-family="sans-serif" font-size="12" lengthAdjust="spacing" textLength="60" x="378" y="125.1074">国际化相关</text><path d="M67,162.3555 L67,187.4883 A0,0 0 0 0 67,187.4883 L294,187.4883 A0,0 0 0 0 294,187.4883 L294,180.3555 L314,174.9219 L294,172.3555 L294,172.3555 L284,162.3555 L67,162.3555 A0,0 0 0 0 67,162.3555 " fill="#FBFB77" filter="url(#fewjuqzwwoi1a)" style="stroke:#A80036;stroke-width:1.0;"/><path d="M284,162.3555 L284,172.3555 L294,172.3555 L284,162.3555 " fill="#FBFB77" style="stroke:#A80036;stroke-width:1.0;"/><text fill="#000000" font-family="sans-serif" font-size="13" lengthAdjust="spacing" textLength="206" x="73" y="179.4224">slowTriggerPool、fastTriggerPool</text><rect fill="#FEFECE" filter="url(#fewjuqzwwoi1a)" height="33.9688" rx="12.5" ry="12.5" style="stroke:#A80036;stroke-width:1.5;" width="188" x="314" y="157.9375"/><text fill="#000000" font-family="sans-serif" font-size="12" lengthAdjust="spacing" textLength="168" x="324" y="179.0762">创建两个线程池（快池、慢池）</text><path d="M33,216.3242 L33,241.457 A0,0 0 0 0 33,241.457 L240,241.457 A0,0 0 0 0 240,241.457 L240,234.3242 L260,228.8906 L240,226.3242 L240,226.3242 L230,216.3242 L33,216.3242 A0,0 0 0 0 33,216.3242 " fill="#FBFB77" filter="url(#fewjuqzwwoi1a)" style="stroke:#A80036;stroke-width:1.0;"/><path d="M230,216.3242 L230,226.3242 L240,226.3242 L230,216.3242 " fill="#FBFB77" style="stroke:#A80036;stroke-width:1.0;"/><text fill="#000000" font-family="sans-serif" font-size="13" lengthAdjust="spacing" textLength="186" x="39" y="233.3911">registryOrRemoveThreadPool</text><rect fill="#FEFECE" filter="url(#fewjuqzwwoi1a)" height="33.9688" rx="12.5" ry="12.5" style="stroke:#A80036;stroke-width:1.5;" width="296" x="260" y="211.9063"/><text fill="#000000" font-family="sans-serif" font-size="12" lengthAdjust="spacing" textLength="276" x="270" y="233.0449">创建一个线程池，用于接收执行器的心跳注册、注销</text><path d="M133.5,270.293 L133.5,295.4258 A0,0 0 0 0 133.5,295.4258 L248.5,295.4258 A0,0 0 0 0 248.5,295.4258 L248.5,288.293 L268.5,282.8594 L248.5,280.293 L248.5,280.293 L238.5,270.293 L133.5,270.293 A0,0 0 0 0 133.5,270.293 " fill="#FBFB77" filter="url(#fewjuqzwwoi1a)" style="stroke:#A80036;stroke-width:1.0;"/><path d="M238.5,270.293 L238.5,280.293 L248.5,280.293 L238.5,270.293 " fill="#FBFB77" style="stroke:#A80036;stroke-width:1.0;"/><text fill="#000000" font-family="sans-serif" font-size="13" lengthAdjust="spacing" textLength="94" x="139.5" y="287.3599">monitorThread</text><rect fill="#FEFECE" filter="url(#fewjuqzwwoi1a)" height="33.9688" rx="12.5" ry="12.5" style="stroke:#A80036;stroke-width:1.5;" width="279" x="268.5" y="265.875"/><text fill="#000000" font-family="sans-serif" font-size="12" lengthAdjust="spacing" textLength="259" x="278.5" y="287.0137">启动一个线程，用于处理失败的job的重试、告警</text><path d="M109,324.2617 L109,349.3945 A0,0 0 0 0 109,349.3945 L252,349.3945 A0,0 0 0 0 252,349.3945 L252,342.2617 L272,336.8281 L252,334.2617 L252,334.2617 L242,324.2617 L109,324.2617 A0,0 0 0 0 109,324.2617 " fill="#FBFB77" filter="url(#fewjuqzwwoi1a)" style="stroke:#A80036;stroke-width:1.0;"/><path d="M242,324.2617 L242,334.2617 L252,334.2617 L242,324.2617 " fill="#FBFB77" style="stroke:#A80036;stroke-width:1.0;"/><text fill="#000000" font-family="sans-serif" font-size="13" lengthAdjust="spacing" textLength="122" x="115" y="341.3286">callbackThreadPool</text><rect fill="#FEFECE" filter="url(#fewjuqzwwoi1a)" height="33.9688" rx="12.5" ry="12.5" style="stroke:#A80036;stroke-width:1.5;" width="272" x="272" y="319.8438"/><text fill="#000000" font-family="sans-serif" font-size="12" lengthAdjust="spacing" textLength="252" x="282" y="340.9824">创建一个线程池，用于处理作业调度结果的回调</text><path d="M155,378.2305 L155,403.3633 A0,0 0 0 0 155,403.3633 L270,403.3633 A0,0 0 0 0 270,403.3633 L270,396.2305 L290,390.7969 L270,388.2305 L270,388.2305 L260,378.2305 L155,378.2305 A0,0 0 0 0 155,378.2305 " fill="#FBFB77" filter="url(#fewjuqzwwoi1a)" style="stroke:#A80036;stroke-width:1.0;"/><path d="M260,378.2305 L260,388.2305 L270,388.2305 L260,378.2305 " fill="#FBFB77" style="stroke:#A80036;stroke-width:1.0;"/><text fill="#000000" font-family="sans-serif" font-size="13" lengthAdjust="spacing" textLength="94" x="161" y="395.2974">monitorThread</text><rect fill="#FEFECE" filter="url(#fewjuqzwwoi1a)" height="33.9688" rx="12.5" ry="12.5" style="stroke:#A80036;stroke-width:1.5;" width="236" x="290" y="373.8125"/><text fill="#000000" font-family="sans-serif" font-size="12" lengthAdjust="spacing" textLength="216" x="300" y="394.9512">启动一个线程，用于处理结果丢失的作业</text><path d="M10,432.1992 L10,457.332 A0,0 0 0 0 10,457.332 L288,457.332 A0,0 0 0 0 288,457.332 L288,450.1992 L308,444.7656 L288,442.1992 L288,442.1992 L278,432.1992 L10,432.1992 A0,0 0 0 0 10,432.1992 " fill="#FBFB77" filter="url(#fewjuqzwwoi1a)" style="stroke:#A80036;stroke-width:1.0;"/><path d="M278,432.1992 L278,442.1992 L288,442.1992 L278,432.1992 " fill="#FBFB77" style="stroke:#A80036;stroke-width:1.0;"/><text fill="#FF0000" font-family="sans-serif" font-size="13" lengthAdjust="spacing" textLength="257" x="16" y="449.2661">时间轮算法[scheduleThread、ringThread]</text><rect fill="#FEFECE" filter="url(#fewjuqzwwoi1a)" height="33.9688" rx="12.5" ry="12.5" style="stroke:#A80036;stroke-width:1.5;" width="200" x="308" y="427.7813"/><text fill="#000000" font-family="sans-serif" font-size="12" lengthAdjust="spacing" textLength="180" x="318" y="448.9199">启动一个调度线程，用于调度作业</text><ellipse cx="408" cy="491.75" fill="#FFFFFF" filter="url(#fewjuqzwwoi1a)" rx="10" ry="10" style="stroke:#000000;stroke-width:1.5;"/><line style="stroke:#000000;stroke-width:2.5;" x1="401.8128" x2="414.1872" y1="485.5628" y2="497.9372"/><line style="stroke:#000000;stroke-width:2.5;" x1="414.1872" x2="401.8128" y1="485.5628" y2="497.9372"/><line style="stroke:#A80036;stroke-width:1.5;" x1="408" x2="408" y1="30" y2="50"/><polygon fill="#A80036" points="404,40,408,50,412,40,408,44" style="stroke:#A80036;stroke-width:1.0;"/><line style="stroke:#A80036;stroke-width:1.5;" x1="408" x2="408" y1="83.9688" y2="103.9688"/><polygon fill="#A80036" points="404,93.9688,408,103.9688,412,93.9688,408,97.9688" style="stroke:#A80036;stroke-width:1.0;"/><line style="stroke:#A80036;stroke-width:1.5;" x1="408" x2="408" y1="137.9375" y2="157.9375"/><polygon fill="#A80036" points="404,147.9375,408,157.9375,412,147.9375,408,151.9375" style="stroke:#A80036;stroke-width:1.0;"/><line style="stroke:#A80036;stroke-width:1.5;" x1="408" x2="408" y1="191.9063" y2="211.9063"/><polygon fill="#A80036" points="404,201.9063,408,211.9063,412,201.9063,408,205.9063" style="stroke:#A80036;stroke-width:1.0;"/><line style="stroke:#A80036;stroke-width:1.5;" x1="408" x2="408" y1="245.875" y2="265.875"/><polygon fill="#A80036" points="404,255.875,408,265.875,412,255.875,408,259.875" style="stroke:#A80036;stroke-width:1.0;"/><line style="stroke:#A80036;stroke-width:1.5;" x1="408" x2="408" y1="299.8438" y2="319.8438"/><polygon fill="#A80036" points="404,309.8438,408,319.8438,412,309.8438,408,313.8438" style="stroke:#A80036;stroke-width:1.0;"/><line style="stroke:#A80036;stroke-width:1.5;" x1="408" x2="408" y1="353.8125" y2="373.8125"/><polygon fill="#A80036" points="404,363.8125,408,373.8125,412,363.8125,408,367.8125" style="stroke:#A80036;stroke-width:1.0;"/><line style="stroke:#A80036;stroke-width:1.5;" x1="408" x2="408" y1="407.7813" y2="427.7813"/><polygon fill="#A80036" points="404,417.7813,408,427.7813,412,417.7813,408,421.7813" style="stroke:#A80036;stroke-width:1.0;"/><line style="stroke:#A80036;stroke-width:1.5;" x1="408" x2="408" y1="461.75" y2="481.75"/><polygon fill="#A80036" points="404,471.75,408,481.75,412,471.75,408,475.75" style="stroke:#A80036;stroke-width:1.0;"/></g></svg>