<?xml version="1.0" encoding="UTF-8" standalone="no"?><svg xmlns="http://www.w3.org/2000/svg" xmlns:xlink="http://www.w3.org/1999/xlink" contentScriptType="application/ecmascript" contentStyleType="text/css" height="302px" preserveAspectRatio="none" style="width:272px;height:302px;background:#FFFFFF;" version="1.1" viewBox="0 0 272 302" width="272px" zoomAndPan="magnify"><defs><filter height="300%" id="fkpmv1450t7j3" width="300%" x="-1" y="-1"><feGaussianBlur result="blurOut" stdDeviation="2.0"/><feColorMatrix in="blurOut" result="blurOut2" type="matrix" values="0 0 0 0 0 0 0 0 0 0 0 0 0 0 0 0 0 0 .4 0"/><feOffset dx="4.0" dy="4.0" in="blurOut2" result="blurOut3"/><feBlend in="SourceGraphic" in2="blurOut3" mode="normal"/></filter></defs><g><ellipse cx="133" cy="20" fill="#000000" filter="url(#fkpmv1450t7j3)" rx="10" ry="10" style="stroke:none;stroke-width:1.0;"/><rect fill="#FEFECE" filter="url(#fkpmv1450t7j3)" height="33.9688" rx="12.5" ry="12.5" style="stroke:#A80036;stroke-width:1.5;" width="164" x="51" y="50"/><text fill="#000000" font-family="sans-serif" font-size="12" lengthAdjust="spacing" textLength="144" x="61" y="71.1387">收到服务端的执行作业请求</text><rect fill="#FEFECE" filter="url(#fkpmv1450t7j3)" height="33.9688" rx="12.5" ry="12.5" style="stroke:#A80036;stroke-width:1.5;" width="171" x="47.5" y="103.9688"/><text fill="#000000" font-family="sans-serif" font-size="12" lengthAdjust="spacing" textLength="151" x="57.5" y="125.1074">根据name取出jobHandler</text><rect fill="#FEFECE" filter="url(#fkpmv1450t7j3)" height="33.9688" rx="12.5" ry="12.5" style="stroke:#A80036;stroke-width:1.5;" width="244" x="11" y="157.9375"/><text fill="#000000" font-family="sans-serif" font-size="12" lengthAdjust="spacing" textLength="224" x="21" y="179.0762">将jobHandler以及参数放进线程池的队列</text><rect fill="#FEFECE" filter="url(#fkpmv1450t7j3)" height="33.9688" rx="12.5" ry="12.5" style="stroke:#A80036;stroke-width:1.5;" width="101" x="82.5" y="211.9063"/><text fill="#000000" font-family="sans-serif" font-size="12" lengthAdjust="spacing" textLength="81" x="92.5" y="233.0449">返回SUCCESS</text><ellipse cx="133" cy="275.875" fill="#FFFFFF" filter="url(#fkpmv1450t7j3)" rx="10" ry="10" style="stroke:#000000;stroke-width:1.5;"/><line style="stroke:#000000;stroke-width:2.5;" x1="126.8128" x2="139.1872" y1="269.6878" y2="282.0622"/><line style="stroke:#000000;stroke-width:2.5;" x1="139.1872" x2="126.8128" y1="269.6878" y2="282.0622"/><line style="stroke:#A80036;stroke-width:1.5;" x1="133" x2="133" y1="30" y2="50"/><polygon fill="#A80036" points="129,40,133,50,137,40,133,44" style="stroke:#A80036;stroke-width:1.0;"/><line style="stroke:#A80036;stroke-width:1.5;" x1="133" x2="133" y1="83.9688" y2="103.9688"/><polygon fill="#A80036" points="129,93.9688,133,103.9688,137,93.9688,133,97.9688" style="stroke:#A80036;stroke-width:1.0;"/><line style="stroke:#A80036;stroke-width:1.5;" x1="133" x2="133" y1="137.9375" y2="157.9375"/><polygon fill="#A80036" points="129,147.9375,133,157.9375,137,147.9375,133,151.9375" style="stroke:#A80036;stroke-width:1.0;"/><line style="stroke:#A80036;stroke-width:1.5;" x1="133" x2="133" y1="191.9063" y2="211.9063"/><polygon fill="#A80036" points="129,201.9063,133,211.9063,137,201.9063,133,205.9063" style="stroke:#A80036;stroke-width:1.0;"/><line style="stroke:#A80036;stroke-width:1.5;" x1="133" x2="133" y1="245.875" y2="265.875"/><polygon fill="#A80036" points="129,255.875,133,265.875,137,255.875,133,259.875" style="stroke:#A80036;stroke-width:1.0;"/></g></svg>