<?xml version="1.0" encoding="UTF-8" standalone="no"?><svg xmlns="http://www.w3.org/2000/svg" xmlns:xlink="http://www.w3.org/1999/xlink" contentScriptType="application/ecmascript" contentStyleType="text/css" height="1340px" preserveAspectRatio="none" style="width:1013px;height:1340px;background:#FFFFFF;" version="1.1" viewBox="0 0 1013 1340" width="1013px" zoomAndPan="magnify"><defs><filter height="300%" id="fzdtg0vuernjn" width="300%" x="-1" y="-1"><feGaussianBlur result="blurOut" stdDeviation="2.0"/><feColorMatrix in="blurOut" result="blurOut2" type="matrix" values="0 0 0 0 0 0 0 0 0 0 0 0 0 0 0 0 0 0 .4 0"/><feOffset dx="4.0" dy="4.0" in="blurOut2" result="blurOut3"/><feBlend in="SourceGraphic" in2="blurOut3" mode="normal"/></filter></defs><g><ellipse cx="568" cy="20" fill="#000000" filter="url(#fzdtg0vuernjn)" rx="10" ry="10" style="stroke:none;stroke-width:1.0;"/><rect fill="#FEFECE" filter="url(#fzdtg0vuernjn)" height="33.9688" rx="12.5" ry="12.5" style="stroke:#A80036;stroke-width:1.5;" width="68" x="534" y="50"/><text fill="#000000" font-family="sans-serif" font-size="12" lengthAdjust="spacing" textLength="48" x="544" y="71.1387">任务调度</text><rect fill="#FFFFFF" filter="url(#fzdtg0vuernjn)" height="873.1284" style="stroke:#000000;stroke-width:2.0;" width="985.75" x="11" y="93.9688"/><path d="M134,93.9688 L134,103.2656 L124,113.2656 L11,113.2656 " fill="none" style="stroke:#000000;stroke-width:2.0;"/><text fill="#000000" font-family="sans-serif" font-size="14" lengthAdjust="spacing" textLength="113" x="14" y="107.9639">scheduleThread</text><path d="M21,134.6836 L21,159.8164 A0,0 0 0 0 21,159.8164 L514,159.8164 A0,0 0 0 0 514,159.8164 L514,152.6836 L534,147.25 L514,144.6836 L514,144.6836 L504,134.6836 L21,134.6836 A0,0 0 0 0 21,134.6836 " fill="#FBFB77" filter="url(#fzdtg0vuernjn)" style="stroke:#A80036;stroke-width:1.0;"/><path d="M504,134.6836 L504,144.6836 L514,144.6836 L504,134.6836 " fill="#FBFB77" style="stroke:#A80036;stroke-width:1.0;"/><text fill="#000000" font-family="sans-serif" font-size="13" lengthAdjust="spacing" textLength="472" x="27" y="151.7505">TimeUnit.MILLISECONDS.sleep(5000 - System.currentTimeMillis()%1000 );</text><rect fill="#FEFECE" filter="url(#fzdtg0vuernjn)" height="33.9688" rx="12.5" ry="12.5" style="stroke:#A80036;stroke-width:1.5;" width="68" x="534" y="130.2656"/><text fill="#000000" font-family="sans-serif" font-size="12" lengthAdjust="spacing" textLength="48" x="544" y="151.4043">时间对齐</text><rect fill="#FEFECE" filter="url(#fzdtg0vuernjn)" height="33.9688" rx="12.5" ry="12.5" style="stroke:#A80036;stroke-width:1.5;" width="92" x="522" y="184.2344"/><text fill="#000000" font-family="sans-serif" font-size="12" lengthAdjust="spacing" textLength="72" x="532" y="205.373">计算预读数据</text><path d="M32,286.6211 L32,311.7539 A0,0 0 0 0 32,311.7539 L514,311.7539 A0,0 0 0 0 514,311.7539 L514,304.6211 L534,299.1875 L514,296.6211 L514,296.6211 L504,286.6211 L32,286.6211 A0,0 0 0 0 32,286.6211 " fill="#FBFB77" filter="url(#fzdtg0vuernjn)" style="stroke:#A80036;stroke-width:1.0;"/><path d="M504,286.6211 L504,296.6211 L514,296.6211 L504,286.6211 " fill="#FBFB77" style="stroke:#A80036;stroke-width:1.0;"/><text fill="#000000" font-family="sans-serif" font-size="13" lengthAdjust="spacing" textLength="461" x="38" y="303.688">select * from xxl_job_lock where lock_name = 'schedule_lock' for update</text><rect fill="#FEFECE" filter="url(#fzdtg0vuernjn)" height="33.9688" rx="12.5" ry="12.5" style="stroke:#A80036;stroke-width:1.5;" width="68" x="534" y="282.2031"/><text fill="#000000" font-family="sans-serif" font-size="12" lengthAdjust="spacing" textLength="48" x="544" y="303.3418">抢悲观锁</text><rect fill="#FEFECE" filter="url(#fzdtg0vuernjn)" height="33.9688" rx="12.5" ry="12.5" style="stroke:#A80036;stroke-width:1.5;" width="140" x="498" y="336.1719"/><text fill="#000000" font-family="sans-serif" font-size="12" lengthAdjust="spacing" textLength="120" x="508" y="357.3105">取出即将要处理的任务</text><polygon fill="#FEFECE" filter="url(#fzdtg0vuernjn)" points="167.25,434.1406,322.25,434.1406,334.25,446.1406,322.25,458.1406,167.25,458.1406,155.25,446.1406,167.25,434.1406" style="stroke:#A80036;stroke-width:1.5;"/><text fill="#000000" font-family="sans-serif" font-size="11" lengthAdjust="spacing" textLength="20" x="248.75" y="468.3511">yes</text><text fill="#000000" font-family="sans-serif" font-size="11" lengthAdjust="spacing" textLength="155" x="167.25" y="449.9487">当前时间大于任务执行时间+5s</text><rect fill="#FEFECE" filter="url(#fzdtg0vuernjn)" height="33.9688" rx="12.5" ry="12.5" style="stroke:#A80036;stroke-width:1.5;" width="140" x="174.75" y="489.8511"/><text fill="#000000" font-family="sans-serif" font-size="12" lengthAdjust="spacing" textLength="120" x="184.75" y="510.9897">刷新任务下次执行时间</text><polygon fill="#FEFECE" filter="url(#fzdtg0vuernjn)" points="388.25,434.1406,520.25,434.1406,532.25,446.1406,520.25,458.1406,388.25,458.1406,376.25,446.1406,388.25,434.1406" style="stroke:#A80036;stroke-width:1.5;"/><text fill="#000000" font-family="sans-serif" font-size="11" lengthAdjust="spacing" textLength="20" x="458.25" y="468.3511">yes</text><text fill="#000000" font-family="sans-serif" font-size="11" lengthAdjust="spacing" textLength="132" x="388.25" y="449.9487">当前时间大于任务执行时间</text><rect fill="#FEFECE" filter="url(#fzdtg0vuernjn)" height="33.9688" rx="12.5" ry="12.5" style="stroke:#A80036;stroke-width:1.5;" width="200" x="354.25" y="489.8511"/><text fill="#000000" font-family="sans-serif" font-size="12" lengthAdjust="spacing" textLength="180" x="364.25" y="510.9897">触发任务，扔到快慢线程池去处理</text><rect fill="#FEFECE" filter="url(#fzdtg0vuernjn)" height="33.9688" rx="12.5" ry="12.5" style="stroke:#A80036;stroke-width:1.5;" width="140" x="384.25" y="543.8198"/><text fill="#000000" font-family="sans-serif" font-size="12" lengthAdjust="spacing" textLength="120" x="394.25" y="564.9585">刷新任务下次执行时间</text><rect fill="#FEFECE" filter="url(#fzdtg0vuernjn)" height="33.9688" rx="12.5" ry="12.5" style="stroke:#A80036;stroke-width:1.5;" width="116" x="396.25" y="646.1909"/><text fill="#000000" font-family="sans-serif" font-size="12" lengthAdjust="spacing" textLength="96" x="406.25" y="667.3296">将任务放进时间轮</text><rect fill="#FEFECE" filter="url(#fzdtg0vuernjn)" height="33.9688" rx="12.5" ry="12.5" style="stroke:#A80036;stroke-width:1.5;" width="140" x="384.25" y="715.1597"/><text fill="#000000" font-family="sans-serif" font-size="12" lengthAdjust="spacing" textLength="120" x="394.25" y="736.2983">刷新任务下次执行时间</text><polygon fill="#FEFECE" filter="url(#fzdtg0vuernjn)" points="376.75,597.7886,531.75,597.7886,543.75,609.7886,531.75,621.7886,376.75,621.7886,364.75,609.7886,376.75,597.7886" style="stroke:#A80036;stroke-width:1.5;"/><text fill="#000000" font-family="sans-serif" font-size="11" lengthAdjust="spacing" textLength="20" x="458.25" y="631.999">yes</text><text fill="#000000" font-family="sans-serif" font-size="11" lengthAdjust="spacing" textLength="155" x="376.75" y="613.5967">当前时间+5s大于下次执行时间</text><text fill="#000000" font-family="sans-serif" font-size="11" lengthAdjust="spacing" textLength="14" x="543.75" y="607.1943">no</text><polygon fill="#FEFECE" filter="url(#fzdtg0vuernjn)" points="454.25,769.1284,466.25,781.1284,454.25,793.1284,442.25,781.1284,454.25,769.1284" style="stroke:#A80036;stroke-width:1.5;"/><polygon fill="#FEFECE" filter="url(#fzdtg0vuernjn)" points="786.75,434.1406,918.75,434.1406,930.75,446.1406,918.75,458.1406,786.75,458.1406,774.75,446.1406,786.75,434.1406" style="stroke:#A80036;stroke-width:1.5;"/><text fill="#000000" font-family="sans-serif" font-size="11" lengthAdjust="spacing" textLength="20" x="856.75" y="468.3511">yes</text><text fill="#000000" font-family="sans-serif" font-size="11" lengthAdjust="spacing" textLength="132" x="786.75" y="449.9487">当前时间小于任务执行时间</text><path d="M575.75,494.269 L575.75,519.4019 A0,0 0 0 0 575.75,519.4019 L774.75,519.4019 A0,0 0 0 0 774.75,519.4019 L774.75,512.269 L794.75,506.8354 L774.75,504.269 L774.75,504.269 L764.75,494.269 L575.75,494.269 A0,0 0 0 0 575.75,494.269 " fill="#FBFB77" filter="url(#fzdtg0vuernjn)" style="stroke:#A80036;stroke-width:1.0;"/><path d="M764.75,494.269 L764.75,504.269 L774.75,504.269 L764.75,494.269 " fill="#FBFB77" style="stroke:#A80036;stroke-width:1.0;"/><text fill="#000000" font-family="sans-serif" font-size="13" lengthAdjust="spacing" textLength="178" x="581.75" y="511.3359">(任务下次执行时间/1000)%60</text><rect fill="#FEFECE" filter="url(#fzdtg0vuernjn)" height="33.9688" rx="12.5" ry="12.5" style="stroke:#A80036;stroke-width:1.5;" width="116" x="794.75" y="489.8511"/><text fill="#000000" font-family="sans-serif" font-size="12" lengthAdjust="spacing" textLength="96" x="804.75" y="510.9897">将任务放进时间轮</text><rect fill="#FEFECE" filter="url(#fzdtg0vuernjn)" height="33.9688" rx="12.5" ry="12.5" style="stroke:#A80036;stroke-width:1.5;" width="140" x="782.75" y="543.8198"/><text fill="#000000" font-family="sans-serif" font-size="12" lengthAdjust="spacing" textLength="120" x="792.75" y="564.9585">刷新任务下次执行时间</text><polygon fill="#FEFECE" filter="url(#fzdtg0vuernjn)" points="568,390.1406,580,402.1406,568,414.1406,556,402.1406,568,390.1406" style="stroke:#A80036;stroke-width:1.5;"/><polygon fill="#FEFECE" filter="url(#fzdtg0vuernjn)" points="535,833.1284,601,833.1284,613,845.1284,601,857.1284,535,857.1284,523,845.1284,535,833.1284" style="stroke:#A80036;stroke-width:1.5;"/><text fill="#000000" font-family="sans-serif" font-size="11" lengthAdjust="spacing" textLength="66" x="535" y="848.9365">任务遍历完？</text><rect fill="#FEFECE" filter="url(#fzdtg0vuernjn)" height="33.9688" rx="12.5" ry="12.5" style="stroke:#A80036;stroke-width:1.5;" width="92" x="522" y="877.1284"/><text fill="#000000" font-family="sans-serif" font-size="12" lengthAdjust="spacing" textLength="72" x="532" y="898.2671">更新任务信息</text><polygon fill="#FEFECE" filter="url(#fzdtg0vuernjn)" points="568,238.2031,580,250.2031,568,262.2031,556,250.2031,568,238.2031" style="stroke:#A80036;stroke-width:1.5;"/><polygon fill="#FEFECE" filter="url(#fzdtg0vuernjn)" points="540.5,931.0972,595.5,931.0972,607.5,943.0972,595.5,955.0972,540.5,955.0972,528.5,943.0972,540.5,931.0972" style="stroke:#A80036;stroke-width:1.5;"/><text fill="#000000" font-family="sans-serif" font-size="11" lengthAdjust="spacing" textLength="55" x="540.5" y="946.9053">线程终止？</text><rect fill="#FFFFFF" filter="url(#fzdtg0vuernjn)" height="306.1406" style="stroke:#000000;stroke-width:2.0;" width="340" x="410" y="977.0972"/><path d="M495,977.0972 L495,986.394 L485,996.394 L410,996.394 " fill="none" style="stroke:#000000;stroke-width:2.0;"/><text fill="#000000" font-family="sans-serif" font-size="14" lengthAdjust="spacing" textLength="75" x="413" y="991.0923">ringThread</text><rect fill="#FEFECE" filter="url(#fzdtg0vuernjn)" height="33.9688" rx="12.5" ry="12.5" style="stroke:#A80036;stroke-width:1.5;" width="80" x="528" y="1057.394"/><text fill="#000000" font-family="sans-serif" font-size="12" lengthAdjust="spacing" textLength="60" x="538" y="1078.5327">对齐这一秒</text><rect fill="#FEFECE" filter="url(#fzdtg0vuernjn)" height="61.9063" rx="12.5" ry="12.5" style="stroke:#A80036;stroke-width:1.5;" width="296" x="420" y="1111.3628"/><text fill="#000000" font-family="sans-serif" font-size="12" lengthAdjust="spacing" textLength="198" x="430" y="1132.5015">通过当前秒获取ringData中的任务，</text><text fill="#000000" font-family="sans-serif" font-size="12" lengthAdjust="spacing" textLength="168" x="430" y="1146.4702">同时为了防止之前有延时产生，</text><text fill="#000000" font-family="sans-serif" font-size="12" lengthAdjust="spacing" textLength="276" x="430" y="1160.439">也检查一下前一秒的刻度中是否还存在未处理的任务</text><rect fill="#FEFECE" filter="url(#fzdtg0vuernjn)" height="33.9688" rx="12.5" ry="12.5" style="stroke:#A80036;stroke-width:1.5;" width="200" x="468" y="1193.269"/><text fill="#000000" font-family="sans-serif" font-size="12" lengthAdjust="spacing" textLength="180" x="478" y="1214.4077">触发任务，扔到快慢线程池去处理</text><polygon fill="#FEFECE" filter="url(#fzdtg0vuernjn)" points="568,1013.394,580,1025.394,568,1037.394,556,1025.394,568,1013.394" style="stroke:#A80036;stroke-width:1.5;"/><polygon fill="#FEFECE" filter="url(#fzdtg0vuernjn)" points="540.5,1247.2378,595.5,1247.2378,607.5,1259.2378,595.5,1271.2378,540.5,1271.2378,528.5,1259.2378,540.5,1247.2378" style="stroke:#A80036;stroke-width:1.5;"/><text fill="#000000" font-family="sans-serif" font-size="11" lengthAdjust="spacing" textLength="55" x="540.5" y="1263.0459">线程终止？</text><ellipse cx="568" cy="1313.2378" fill="#FFFFFF" filter="url(#fzdtg0vuernjn)" rx="10" ry="10" style="stroke:#000000;stroke-width:1.5;"/><line style="stroke:#000000;stroke-width:2.5;" x1="561.8128" x2="574.1872" y1="1307.0506" y2="1319.425"/><line style="stroke:#000000;stroke-width:2.5;" x1="574.1872" x2="561.8128" y1="1307.0506" y2="1319.425"/><line style="stroke:#A80036;stroke-width:1.5;" x1="568" x2="568" y1="30" y2="50"/><polygon fill="#A80036" points="564,40,568,50,572,40,568,44" style="stroke:#A80036;stroke-width:1.0;"/><line style="stroke:#A80036;stroke-width:1.5;" x1="568" x2="568" y1="164.2344" y2="184.2344"/><polygon fill="#A80036" points="564,174.2344,568,184.2344,572,174.2344,568,178.2344" style="stroke:#A80036;stroke-width:1.0;"/><line style="stroke:#A80036;stroke-width:1.5;" x1="568" x2="568" y1="316.1719" y2="336.1719"/><polygon fill="#A80036" points="564,326.1719,568,336.1719,572,326.1719,568,330.1719" style="stroke:#A80036;stroke-width:1.0;"/><line style="stroke:#A80036;stroke-width:1.5;" x1="454.25" x2="454.25" y1="523.8198" y2="543.8198"/><polygon fill="#A80036" points="450.25,533.8198,454.25,543.8198,458.25,533.8198,454.25,537.8198" style="stroke:#A80036;stroke-width:1.0;"/><line style="stroke:#A80036;stroke-width:1.5;" x1="454.25" x2="454.25" y1="680.1597" y2="715.1597"/><polygon fill="#A80036" points="450.25,705.1597,454.25,715.1597,458.25,705.1597,454.25,709.1597" style="stroke:#A80036;stroke-width:1.0;"/><line style="stroke:#A80036;stroke-width:1.5;" x1="454.25" x2="454.25" y1="621.7886" y2="646.1909"/><polygon fill="#A80036" points="450.25,636.1909,454.25,646.1909,458.25,636.1909,454.25,640.1909" style="stroke:#A80036;stroke-width:1.0;"/><line style="stroke:#A80036;stroke-width:1.5;" x1="543.75" x2="555.75" y1="609.7886" y2="609.7886"/><polygon fill="#A80036" points="551.75,687.6597,555.75,697.6597,559.75,687.6597,555.75,691.6597" style="stroke:#A80036;stroke-width:1.5;"/><line style="stroke:#A80036;stroke-width:1.5;" x1="555.75" x2="555.75" y1="609.7886" y2="781.1284"/><line style="stroke:#A80036;stroke-width:1.5;" x1="555.75" x2="466.25" y1="781.1284" y2="781.1284"/><polygon fill="#A80036" points="476.25,777.1284,466.25,781.1284,476.25,785.1284,472.25,781.1284" style="stroke:#A80036;stroke-width:1.0;"/><line style="stroke:#A80036;stroke-width:1.5;" x1="454.25" x2="454.25" y1="749.1284" y2="769.1284"/><polygon fill="#A80036" points="450.25,759.1284,454.25,769.1284,458.25,759.1284,454.25,763.1284" style="stroke:#A80036;stroke-width:1.0;"/><line style="stroke:#A80036;stroke-width:1.5;" x1="454.25" x2="454.25" y1="577.7886" y2="597.7886"/><polygon fill="#A80036" points="450.25,587.7886,454.25,597.7886,458.25,587.7886,454.25,591.7886" style="stroke:#A80036;stroke-width:1.0;"/><line style="stroke:#A80036;stroke-width:1.5;" x1="852.75" x2="852.75" y1="523.8198" y2="543.8198"/><polygon fill="#A80036" points="848.75,533.8198,852.75,543.8198,856.75,533.8198,852.75,537.8198" style="stroke:#A80036;stroke-width:1.0;"/><line style="stroke:#A80036;stroke-width:1.5;" x1="244.75" x2="244.75" y1="458.1406" y2="489.8511"/><polygon fill="#A80036" points="240.75,479.8511,244.75,489.8511,248.75,479.8511,244.75,483.8511" style="stroke:#A80036;stroke-width:1.0;"/><line style="stroke:#A80036;stroke-width:1.5;" x1="244.75" x2="244.75" y1="523.8198" y2="813.1284"/><polygon fill="#A80036" points="240.75,803.1284,244.75,813.1284,248.75,803.1284,244.75,807.1284" style="stroke:#A80036;stroke-width:1.0;"/><line style="stroke:#A80036;stroke-width:1.5;" x1="454.25" x2="454.25" y1="458.1406" y2="489.8511"/><polygon fill="#A80036" points="450.25,479.8511,454.25,489.8511,458.25,479.8511,454.25,483.8511" style="stroke:#A80036;stroke-width:1.0;"/><line style="stroke:#A80036;stroke-width:1.5;" x1="454.25" x2="454.25" y1="793.1284" y2="813.1284"/><polygon fill="#A80036" points="450.25,803.1284,454.25,813.1284,458.25,803.1284,454.25,807.1284" style="stroke:#A80036;stroke-width:1.0;"/><line style="stroke:#A80036;stroke-width:1.5;" x1="852.75" x2="852.75" y1="458.1406" y2="489.8511"/><polygon fill="#A80036" points="848.75,479.8511,852.75,489.8511,856.75,479.8511,852.75,483.8511" style="stroke:#A80036;stroke-width:1.0;"/><line style="stroke:#A80036;stroke-width:1.5;" x1="852.75" x2="852.75" y1="577.7886" y2="813.1284"/><polygon fill="#A80036" points="848.75,803.1284,852.75,813.1284,856.75,803.1284,852.75,807.1284" style="stroke:#A80036;stroke-width:1.0;"/><line style="stroke:#A80036;stroke-width:1.5;" x1="334.25" x2="376.25" y1="446.1406" y2="446.1406"/><polygon fill="#A80036" points="366.25,442.1406,376.25,446.1406,366.25,450.1406,370.25,446.1406" style="stroke:#A80036;stroke-width:1.0;"/><line style="stroke:#A80036;stroke-width:1.5;" x1="532.25" x2="774.75" y1="446.1406" y2="446.1406"/><polygon fill="#A80036" points="764.75,442.1406,774.75,446.1406,764.75,450.1406,768.75,446.1406" style="stroke:#A80036;stroke-width:1.0;"/><line style="stroke:#A80036;stroke-width:1.5;" x1="568" x2="568" y1="414.1406" y2="419.1406"/><line style="stroke:#A80036;stroke-width:1.5;" x1="568" x2="244.75" y1="419.1406" y2="419.1406"/><line style="stroke:#A80036;stroke-width:1.5;" x1="244.75" x2="244.75" y1="419.1406" y2="434.1406"/><polygon fill="#A80036" points="240.75,424.1406,244.75,434.1406,248.75,424.1406,244.75,428.1406" style="stroke:#A80036;stroke-width:1.0;"/><line style="stroke:#A80036;stroke-width:1.5;" x1="930.75" x2="944.75" y1="446.1406" y2="446.1406"/><line style="stroke:#A80036;stroke-width:1.5;" x1="944.75" x2="944.75" y1="446.1406" y2="813.1284"/><polygon fill="#A80036" points="940.75,803.1284,944.75,813.1284,948.75,803.1284,944.75,807.1284" style="stroke:#A80036;stroke-width:1.0;"/><line style="stroke:#A80036;stroke-width:1.5;" x1="244.75" x2="944.75" y1="813.1284" y2="813.1284"/><line style="stroke:#A80036;stroke-width:1.5;" x1="613" x2="962.75" y1="845.1284" y2="845.1284"/><polygon fill="#A80036" points="958.75,635.2886,962.75,625.2886,966.75,635.2886,962.75,631.2886" style="stroke:#A80036;stroke-width:1.5;"/><line style="stroke:#A80036;stroke-width:1.5;" x1="962.75" x2="962.75" y1="402.1406" y2="845.1284"/><line style="stroke:#A80036;stroke-width:1.5;" x1="962.75" x2="580" y1="402.1406" y2="402.1406"/><polygon fill="#A80036" points="590,398.1406,580,402.1406,590,406.1406,586,402.1406" style="stroke:#A80036;stroke-width:1.0;"/><line style="stroke:#A80036;stroke-width:1.5;" x1="568" x2="568" y1="813.1284" y2="833.1284"/><polygon fill="#A80036" points="564,823.1284,568,833.1284,572,823.1284,568,827.1284" style="stroke:#A80036;stroke-width:1.0;"/><line style="stroke:#A80036;stroke-width:1.5;" x1="568" x2="568" y1="370.1406" y2="390.1406"/><polygon fill="#A80036" points="564,380.1406,568,390.1406,572,380.1406,568,384.1406" style="stroke:#A80036;stroke-width:1.0;"/><line style="stroke:#A80036;stroke-width:1.5;" x1="568" x2="568" y1="857.1284" y2="877.1284"/><polygon fill="#A80036" points="564,867.1284,568,877.1284,572,867.1284,568,871.1284" style="stroke:#A80036;stroke-width:1.0;"/><line style="stroke:#A80036;stroke-width:1.5;" x1="568" x2="568" y1="262.2031" y2="282.2031"/><polygon fill="#A80036" points="564,272.2031,568,282.2031,572,272.2031,568,276.2031" style="stroke:#A80036;stroke-width:1.0;"/><line style="stroke:#A80036;stroke-width:1.5;" x1="607.5" x2="980.75" y1="943.0972" y2="943.0972"/><polygon fill="#A80036" points="976.75,600.8042,980.75,590.8042,984.75,600.8042,980.75,596.8042" style="stroke:#A80036;stroke-width:1.5;"/><line style="stroke:#A80036;stroke-width:1.5;" x1="980.75" x2="980.75" y1="250.2031" y2="943.0972"/><line style="stroke:#A80036;stroke-width:1.5;" x1="980.75" x2="580" y1="250.2031" y2="250.2031"/><polygon fill="#A80036" points="590,246.2031,580,250.2031,590,254.2031,586,250.2031" style="stroke:#A80036;stroke-width:1.0;"/><line style="stroke:#A80036;stroke-width:1.5;" x1="568" x2="568" y1="911.0972" y2="931.0972"/><polygon fill="#A80036" points="564,921.0972,568,931.0972,572,921.0972,568,925.0972" style="stroke:#A80036;stroke-width:1.0;"/><line style="stroke:#A80036;stroke-width:1.5;" x1="568" x2="568" y1="218.2031" y2="238.2031"/><polygon fill="#A80036" points="564,228.2031,568,238.2031,572,228.2031,568,232.2031" style="stroke:#A80036;stroke-width:1.0;"/><line style="stroke:#A80036;stroke-width:1.5;" x1="568" x2="568" y1="83.9688" y2="130.2656"/><polygon fill="#A80036" points="564,120.2656,568,130.2656,572,120.2656,568,124.2656" style="stroke:#A80036;stroke-width:1.0;"/><line style="stroke:#A80036;stroke-width:1.5;" x1="568" x2="568" y1="1091.3628" y2="1111.3628"/><polygon fill="#A80036" points="564,1101.3628,568,1111.3628,572,1101.3628,568,1105.3628" style="stroke:#A80036;stroke-width:1.0;"/><line style="stroke:#A80036;stroke-width:1.5;" x1="568" x2="568" y1="1173.269" y2="1193.269"/><polygon fill="#A80036" points="564,1183.269,568,1193.269,572,1183.269,568,1187.269" style="stroke:#A80036;stroke-width:1.0;"/><line style="stroke:#A80036;stroke-width:1.5;" x1="568" x2="568" y1="1037.394" y2="1057.394"/><polygon fill="#A80036" points="564,1047.394,568,1057.394,572,1047.394,568,1051.394" style="stroke:#A80036;stroke-width:1.0;"/><line style="stroke:#A80036;stroke-width:1.5;" x1="607.5" x2="728" y1="1259.2378" y2="1259.2378"/><polygon fill="#A80036" points="724,1152.3159,728,1142.3159,732,1152.3159,728,1148.3159" style="stroke:#A80036;stroke-width:1.5;"/><line style="stroke:#A80036;stroke-width:1.5;" x1="728" x2="728" y1="1025.394" y2="1259.2378"/><line style="stroke:#A80036;stroke-width:1.5;" x1="728" x2="580" y1="1025.394" y2="1025.394"/><polygon fill="#A80036" points="590,1021.394,580,1025.394,590,1029.394,586,1025.394" style="stroke:#A80036;stroke-width:1.0;"/><line style="stroke:#A80036;stroke-width:1.5;" x1="568" x2="568" y1="1227.2378" y2="1247.2378"/><polygon fill="#A80036" points="564,1237.2378,568,1247.2378,572,1237.2378,568,1241.2378" style="stroke:#A80036;stroke-width:1.0;"/><line style="stroke:#A80036;stroke-width:1.5;" x1="568" x2="568" y1="955.0972" y2="1013.394"/><polygon fill="#A80036" points="564,1003.394,568,1013.394,572,1003.394,568,1007.394" style="stroke:#A80036;stroke-width:1.0;"/><line style="stroke:#A80036;stroke-width:1.5;" x1="568" x2="568" y1="1271.2378" y2="1303.2378"/><polygon fill="#A80036" points="564,1293.2378,568,1303.2378,572,1293.2378,568,1297.2378" style="stroke:#A80036;stroke-width:1.0;"/></g></svg>