<?xml version="1.0" encoding="UTF-8" standalone="no"?><svg xmlns="http://www.w3.org/2000/svg" xmlns:xlink="http://www.w3.org/1999/xlink" contentScriptType="application/ecmascript" contentStyleType="text/css" height="194px" preserveAspectRatio="none" style="width:312px;height:194px;background:#FFFFFF;" version="1.1" viewBox="0 0 312 194" width="312px" zoomAndPan="magnify"><defs><filter height="300%" id="f12kegll6jvcce" width="300%" x="-1" y="-1"><feGaussianBlur result="blurOut" stdDeviation="2.0"/><feColorMatrix in="blurOut" result="blurOut2" type="matrix" values="0 0 0 0 0 0 0 0 0 0 0 0 0 0 0 0 0 0 .4 0"/><feOffset dx="4.0" dy="4.0" in="blurOut2" result="blurOut3"/><feBlend in="SourceGraphic" in2="blurOut3" mode="normal"/></filter></defs><g><ellipse cx="153" cy="20" fill="#000000" filter="url(#f12kegll6jvcce)" rx="10" ry="10" style="stroke:none;stroke-width:1.0;"/><rect fill="#FEFECE" filter="url(#f12kegll6jvcce)" height="33.9688" rx="12.5" ry="12.5" style="stroke:#A80036;stroke-width:1.5;" width="104" x="101" y="50"/><text fill="#000000" font-family="sans-serif" font-size="12" lengthAdjust="spacing" textLength="84" x="111" y="71.1387">线程池执行任务</text><rect fill="#FEFECE" filter="url(#f12kegll6jvcce)" height="33.9688" rx="12.5" ry="12.5" style="stroke:#A80036;stroke-width:1.5;" width="284" x="11" y="103.9688"/><text fill="#000000" font-family="sans-serif" font-size="12" lengthAdjust="spacing" textLength="264" x="21" y="125.1074">另一个线程将任务执行结果以及日志回调给服务端</text><ellipse cx="153" cy="167.9375" fill="#FFFFFF" filter="url(#f12kegll6jvcce)" rx="10" ry="10" style="stroke:#000000;stroke-width:1.5;"/><line style="stroke:#000000;stroke-width:2.5;" x1="146.8128" x2="159.1872" y1="161.7503" y2="174.1247"/><line style="stroke:#000000;stroke-width:2.5;" x1="159.1872" x2="146.8128" y1="161.7503" y2="174.1247"/><line style="stroke:#A80036;stroke-width:1.5;" x1="153" x2="153" y1="30" y2="50"/><polygon fill="#A80036" points="149,40,153,50,157,40,153,44" style="stroke:#A80036;stroke-width:1.0;"/><line style="stroke:#A80036;stroke-width:1.5;" x1="153" x2="153" y1="83.9688" y2="103.9688"/><polygon fill="#A80036" points="149,93.9688,153,103.9688,157,93.9688,153,97.9688" style="stroke:#A80036;stroke-width:1.0;"/><line style="stroke:#A80036;stroke-width:1.5;" x1="153" x2="153" y1="137.9375" y2="157.9375"/><polygon fill="#A80036" points="149,147.9375,153,157.9375,157,147.9375,153,151.9375" style="stroke:#A80036;stroke-width:1.0;"/></g></svg>